<?xml version="1.0" standalone="no"?>
<!DOCTYPE svg PUBLIC "-//W3C//DTD SVG 20010904//EN"
 "http://www.w3.org/TR/2001/REC-SVG-20010904/DTD/svg10.dtd">
<svg version="1.0" xmlns="http://www.w3.org/2000/svg"
 width="122.000000pt" height="122.000000pt" viewBox="0 0 122.000000 122.000000"
 preserveAspectRatio="xMidYMid meet">
<metadata>
Created by potrace 1.11, written by Peter Selinger 2001-2013
</metadata>
<g transform="translate(0.000000,122.000000) scale(0.100000,-0.100000)"
fill="#000000" stroke="none">
<path d="M462 1200 c-221 -58 -385 -224 -442 -446 -83 -322 117 -650 446 -734
322 -83 650 117 734 446 112 438 -301 848 -738 734z m140 -474 c3 -210 4 -226
24 -253 11 -15 36 -33 55 -39 l34 -12 3 -76 c3 -87 3 -87 -86 -61 -65 20 -116
63 -149 129 -23 44 -27 67 -31 169 l-4 117 -39 0 -39 0 0 65 0 65 40 0 40 0 0
60 0 60 74 0 75 0 3 -224z m222 103 c36 -43 35 -91 -3 -130 -39 -38 -87 -39
-130 -3 -26 22 -31 33 -31 70 0 34 6 51 25 69 18 19 35 25 69 25 37 0 48 -5
70 -31z"/>
</g>
</svg>
